<?xml version="1.0" encoding="UTF-8" standalone="no"?>
<!DOCTYPE svg PUBLIC "-//W3C//DTD SVG 1.1//EN"
 "http://www.w3.org/Graphics/SVG/1.1/DTD/svg11.dtd">
<!-- Generated by graphviz version 12.2.1 (20241206.2353)
 -->
<!-- Title: dependency&#45;cruiser output Pages: 1 -->
<svg width="712pt" height="204pt"
 viewBox="0.00 0.00 712.00 204.00" xmlns="http://www.w3.org/2000/svg" xmlns:xlink="http://www.w3.org/1999/xlink">
<g id="graph0" class="graph" transform="scale(1 1) rotate(0) translate(4 200)">
<title>dependency&#45;cruiser output</title>
<polygon fill="white" stroke="none" points="-4,4 -4,-200 708,-200 708,4 -4,4"/>
<g id="clust1" class="cluster">
<title>cluster_src</title>
<path fill="#ffffff" stroke="black" stroke-width="2" d="M20,-8C20,-8 684,-8 684,-8 690,-8 696,-14 696,-20 696,-20 696,-176 696,-176 696,-182 690,-188 684,-188 684,-188 20,-188 20,-188 14,-188 8,-182 8,-176 8,-176 8,-20 8,-20 8,-14 14,-8 20,-8"/>
<text text-anchor="middle" x="352" y="-175.45" font-family="Helvetica,sans-Serif" font-weight="bold" font-size="9.00">src</text>
</g>
<g id="clust2" class="cluster">
<title>cluster_src/adapters</title>
<path fill="#ffffff" stroke="black" stroke-width="2" d="M176.75,-46C176.75,-46 268.25,-46 268.25,-46 274.25,-46 280.25,-52 280.25,-58 280.25,-58 280.25,-120 280.25,-120 280.25,-126 274.25,-132 268.25,-132 268.25,-132 176.75,-132 176.75,-132 170.75,-132 164.75,-126 164.75,-120 164.75,-120 164.75,-58 164.75,-58 164.75,-52 170.75,-46 176.75,-46"/>
<text text-anchor="middle" x="222.5" y="-119.45" font-family="Helvetica,sans-Serif" font-weight="bold" font-size="9.00">adapters</text>
</g>
<g id="clust3" class="cluster">
<title>cluster_src/adapters/controllers</title>
<path fill="#ffffff" stroke="black" stroke-width="2" d="M184.75,-54C184.75,-54 260.25,-54 260.25,-54 266.25,-54 272.25,-60 272.25,-66 272.25,-66 272.25,-94 272.25,-94 272.25,-100 266.25,-106 260.25,-106 260.25,-106 184.75,-106 184.75,-106 178.75,-106 172.75,-100 172.75,-94 172.75,-94 172.75,-66 172.75,-66 172.75,-60 178.75,-54 184.75,-54"/>
<text text-anchor="middle" x="222.5" y="-93.45" font-family="Helvetica,sans-Serif" font-weight="bold" font-size="9.00">controllers</text>
</g>
<g id="clust4" class="cluster">
<title>cluster_src/domain</title>
<path fill="#ffffff" stroke="black" stroke-width="2" d="M472.5,-42C472.5,-42 676,-42 676,-42 682,-42 688,-48 688,-54 688,-54 688,-116 688,-116 688,-122 682,-128 676,-128 676,-128 472.5,-128 472.5,-128 466.5,-128 460.5,-122 460.5,-116 460.5,-116 460.5,-54 460.5,-54 460.5,-48 466.5,-42 472.5,-42"/>
<text text-anchor="middle" x="574.25" y="-115.45" font-family="Helvetica,sans-Serif" font-weight="bold" font-size="9.00">domain</text>
</g>
<g id="clust5" class="cluster">
<title>cluster_src/domain/entities</title>
<path fill="#ffffff" stroke="black" stroke-width="2" d="M609,-50C609,-50 668,-50 668,-50 674,-50 680,-56 680,-62 680,-62 680,-90 680,-90 680,-96 674,-102 668,-102 668,-102 609,-102 609,-102 603,-102 597,-96 597,-90 597,-90 597,-62 597,-62 597,-56 603,-50 609,-50"/>
<text text-anchor="middle" x="638.5" y="-89.45" font-family="Helvetica,sans-Serif" font-weight="bold" font-size="9.00">entities</text>
</g>
<g id="clust6" class="cluster">
<title>cluster_src/domain/ports</title>
<path fill="#ffffff" stroke="black" stroke-width="2" d="M480.5,-50C480.5,-50 577,-50 577,-50 583,-50 589,-56 589,-62 589,-62 589,-90 589,-90 589,-96 583,-102 577,-102 577,-102 480.5,-102 480.5,-102 474.5,-102 468.5,-96 468.5,-90 468.5,-90 468.5,-62 468.5,-62 468.5,-56 474.5,-50 480.5,-50"/>
<text text-anchor="middle" x="528.75" y="-89.45" font-family="Helvetica,sans-Serif" font-weight="bold" font-size="9.00">ports</text>
</g>
<g id="clust7" class="cluster">
<title>cluster_src/infrastructure</title>
<path fill="#ffffff" stroke="black" stroke-width="2" d="M300.25,-16C300.25,-16 440.5,-16 440.5,-16 446.5,-16 452.5,-22 452.5,-28 452.5,-28 452.5,-90 452.5,-90 452.5,-96 446.5,-102 440.5,-102 440.5,-102 300.25,-102 300.25,-102 294.25,-102 288.25,-96 288.25,-90 288.25,-90 288.25,-28 288.25,-28 288.25,-22 294.25,-16 300.25,-16"/>
<text text-anchor="middle" x="370.38" y="-89.45" font-family="Helvetica,sans-Serif" font-weight="bold" font-size="9.00">infrastructure</text>
</g>
<g id="clust8" class="cluster">
<title>cluster_src/infrastructure/repositories</title>
<path fill="#ffffff" stroke="black" stroke-width="2" d="M308.25,-24C308.25,-24 432.5,-24 432.5,-24 438.5,-24 444.5,-30 444.5,-36 444.5,-36 444.5,-64 444.5,-64 444.5,-70 438.5,-76 432.5,-76 432.5,-76 308.25,-76 308.25,-76 302.25,-76 296.25,-70 296.25,-64 296.25,-64 296.25,-36 296.25,-36 296.25,-30 302.25,-24 308.25,-24"/>
<text text-anchor="middle" x="370.38" y="-63.45" font-family="Helvetica,sans-Serif" font-weight="bold" font-size="9.00">repositories</text>
</g>
<g id="clust9" class="cluster">
<title>cluster_src/use&#45;cases</title>
<path fill="#ffffff" stroke="black" stroke-width="2" d="M326.62,-110C326.62,-110 414.12,-110 414.12,-110 420.12,-110 426.12,-116 426.12,-122 426.12,-122 426.12,-150 426.12,-150 426.12,-156 420.12,-162 414.12,-162 414.12,-162 326.62,-162 326.62,-162 320.62,-162 314.62,-156 314.62,-150 314.62,-150 314.62,-122 314.62,-122 314.62,-116 320.62,-110 326.62,-110"/>
<text text-anchor="middle" x="370.38" y="-149.45" font-family="Helvetica,sans-Serif" font-weight="bold" font-size="9.00">use&#45;cases</text>
</g>
<!-- src/adapters/controllers/user.controller.ts -->
<g id="node1" class="node">
<title>src/adapters/controllers/user.controller.ts</title>
<g id="a_node1"><a xlink:href="src/adapters/controllers/user.controller.ts" xlink:title="user.controller.ts">
<path fill="#ddfeff" stroke="black" d="M258.33,-79.88C258.33,-79.88 186.67,-79.88 186.67,-79.88 183.71,-79.88 180.75,-76.92 180.75,-73.96 180.75,-73.96 180.75,-68.04 180.75,-68.04 180.75,-65.08 183.71,-62.12 186.67,-62.12 186.67,-62.12 258.33,-62.12 258.33,-62.12 261.29,-62.12 264.25,-65.08 264.25,-68.04 264.25,-68.04 264.25,-73.96 264.25,-73.96 264.25,-76.92 261.29,-79.88 258.33,-79.88"/>
<text text-anchor="start" x="188.75" y="-67.33" font-family="Helvetica,sans-Serif" font-size="9.00">user.controller.ts</text>
</a>
</g>
</g>
<!-- src/infrastructure/repositories/in&#45;memory&#45;user.repository.ts -->
<g id="node2" class="node">
<title>src/infrastructure/repositories/in&#45;memory&#45;user.repository.ts</title>
<g id="a_node2"><a xlink:href="src/infrastructure/repositories/in-memory-user.repository.ts" xlink:title="in&#45;memory&#45;user.repository.ts">
<path fill="#ddfeff" stroke="black" d="M430.58,-49.88C430.58,-49.88 310.17,-49.88 310.17,-49.88 307.21,-49.88 304.25,-46.92 304.25,-43.96 304.25,-43.96 304.25,-38.04 304.25,-38.04 304.25,-35.08 307.21,-32.12 310.17,-32.12 310.17,-32.12 430.58,-32.12 430.58,-32.12 433.54,-32.12 436.5,-35.08 436.5,-38.04 436.5,-38.04 436.5,-43.96 436.5,-43.96 436.5,-46.92 433.54,-49.88 430.58,-49.88"/>
<text text-anchor="start" x="312.25" y="-37.33" font-family="Helvetica,sans-Serif" font-size="9.00">in&#45;memory&#45;user.repository.ts</text>
</a>
</g>
</g>
<!-- src/adapters/controllers/user.controller.ts&#45;&gt;src/infrastructure/repositories/in&#45;memory&#45;user.repository.ts -->
<g id="edge1" class="edge">
<title>src/adapters/controllers/user.controller.ts&#45;&gt;src/infrastructure/repositories/in&#45;memory&#45;user.repository.ts</title>
<path fill="none" stroke="#000000" stroke-width="2" stroke-opacity="0.200000" d="M264.52,-62.56C280.24,-59.33 298.42,-55.59 315.18,-52.15"/>
<polygon fill="#000000" fill-opacity="0.200000" stroke="#000000" stroke-width="2" stroke-opacity="0.200000" points="315.37,-54.25 320.83,-50.98 314.53,-50.14 315.37,-54.25"/>
</g>
<!-- src/use&#45;cases/get&#45;user.usecase.ts -->
<g id="node3" class="node">
<title>src/use&#45;cases/get&#45;user.usecase.ts</title>
<g id="a_node3"><a xlink:href="src/use-cases/get-user.usecase.ts" xlink:title="get&#45;user.usecase.ts">
<path fill="#ddfeff" stroke="black" d="M412.21,-135.88C412.21,-135.88 328.54,-135.88 328.54,-135.88 325.58,-135.88 322.62,-132.92 322.62,-129.96 322.62,-129.96 322.62,-124.04 322.62,-124.04 322.62,-121.08 325.58,-118.12 328.54,-118.12 328.54,-118.12 412.21,-118.12 412.21,-118.12 415.17,-118.12 418.12,-121.08 418.12,-124.04 418.12,-124.04 418.12,-129.96 418.12,-129.96 418.12,-132.92 415.17,-135.88 412.21,-135.88"/>
<text text-anchor="start" x="330.62" y="-123.33" font-family="Helvetica,sans-Serif" font-size="9.00">get&#45;user.usecase.ts</text>
</a>
</g>
</g>
<!-- src/adapters/controllers/user.controller.ts&#45;&gt;src/use&#45;cases/get&#45;user.usecase.ts -->
<g id="edge2" class="edge">
<title>src/adapters/controllers/user.controller.ts&#45;&gt;src/use&#45;cases/get&#45;user.usecase.ts</title>
<path fill="none" stroke="#000000" stroke-width="2" stroke-opacity="0.200000" d="M247.92,-80.37C272.36,-89.76 310.11,-104.25 337.03,-114.58"/>
<polygon fill="#000000" fill-opacity="0.200000" stroke="#000000" stroke-width="2" stroke-opacity="0.200000" points="336.18,-116.51 342.54,-116.7 337.69,-112.59 336.18,-116.51"/>
</g>
<!-- src/domain/entities/user.entity.ts -->
<g id="node5" class="node">
<title>src/domain/entities/user.entity.ts</title>
<g id="a_node5"><a xlink:href="src/domain/entities/user.entity.ts" xlink:title="user.entity.ts">
<path fill="#ddfeff" stroke="black" d="M666.08,-75.88C666.08,-75.88 610.92,-75.88 610.92,-75.88 607.96,-75.88 605,-72.92 605,-69.96 605,-69.96 605,-64.04 605,-64.04 605,-61.08 607.96,-58.12 610.92,-58.12 610.92,-58.12 666.08,-58.12 666.08,-58.12 669.04,-58.12 672,-61.08 672,-64.04 672,-64.04 672,-69.96 672,-69.96 672,-72.92 669.04,-75.88 666.08,-75.88"/>
<text text-anchor="start" x="613" y="-63.33" font-family="Helvetica,sans-Serif" font-size="9.00">user.entity.ts</text>
</a>
</g>
</g>
<!-- src/infrastructure/repositories/in&#45;memory&#45;user.repository.ts&#45;&gt;src/domain/entities/user.entity.ts -->
<g id="edge5" class="edge">
<title>src/infrastructure/repositories/in&#45;memory&#45;user.repository.ts&#45;&gt;src/domain/entities/user.entity.ts</title>
<path fill="none" stroke="#000000" stroke-width="2" stroke-opacity="0.200000" d="M436.86,-36.68C480.44,-35.29 538.72,-36.32 589,-47 596.56,-48.61 604.43,-51.34 611.58,-54.28"/>
<polygon fill="#000000" fill-opacity="0.200000" stroke="#000000" stroke-width="2" stroke-opacity="0.200000" points="610.47,-56.09 616.8,-56.57 612.15,-52.24 610.47,-56.09"/>
</g>
<!-- src/domain/ports/user&#45;repository.port.ts -->
<g id="node6" class="node">
<title>src/domain/ports/user&#45;repository.port.ts</title>
<g id="a_node6"><a xlink:href="src/domain/ports/user-repository.port.ts" xlink:title="user&#45;repository.port.ts">
<path fill="#ddfeff" stroke="black" d="M575.08,-75.88C575.08,-75.88 482.42,-75.88 482.42,-75.88 479.46,-75.88 476.5,-72.92 476.5,-69.96 476.5,-69.96 476.5,-64.04 476.5,-64.04 476.5,-61.08 479.46,-58.12 482.42,-58.12 482.42,-58.12 575.08,-58.12 575.08,-58.12 578.04,-58.12 581,-61.08 581,-64.04 581,-64.04 581,-69.96 581,-69.96 581,-72.92 578.04,-75.88 575.08,-75.88"/>
<text text-anchor="start" x="484.5" y="-63.33" font-family="Helvetica,sans-Serif" font-size="9.00">user&#45;repository.port.ts</text>
</a>
</g>
</g>
<!-- src/infrastructure/repositories/in&#45;memory&#45;user.repository.ts&#45;&gt;src/domain/ports/user&#45;repository.port.ts -->
<g id="edge6" class="edge">
<title>src/infrastructure/repositories/in&#45;memory&#45;user.repository.ts&#45;&gt;src/domain/ports/user&#45;repository.port.ts</title>
<path fill="none" stroke="#000000" stroke-width="2" stroke-opacity="0.200000" d="M427.39,-50.31C440.4,-52.48 454.31,-54.79 467.49,-56.98"/>
<polygon fill="#000000" fill-opacity="0.200000" stroke="#000000" stroke-width="2" stroke-opacity="0.200000" points="466.79,-58.99 473.05,-57.91 467.48,-54.85 466.79,-58.99"/>
</g>
<!-- src/use&#45;cases/get&#45;user.usecase.ts&#45;&gt;src/domain/ports/user&#45;repository.port.ts -->
<g id="edge8" class="edge">
<title>src/use&#45;cases/get&#45;user.usecase.ts&#45;&gt;src/domain/ports/user&#45;repository.port.ts</title>
<path fill="none" stroke="#000000" stroke-width="2" stroke-opacity="0.200000" d="M395.81,-117.62C422.55,-107.37 465.54,-90.87 495.14,-79.51"/>
<polygon fill="#000000" fill-opacity="0.200000" stroke="#000000" stroke-width="2" stroke-opacity="0.200000" points="495.81,-81.5 500.66,-77.39 494.31,-77.58 495.81,-81.5"/>
</g>
<!-- src/app.module.ts -->
<g id="node4" class="node">
<title>src/app.module.ts</title>
<g id="a_node4"><a xlink:href="src/app.module.ts" xlink:title="app.module.ts">
<path fill="#ddfeff" stroke="black" d="M150.83,-79.88C150.83,-79.88 88.92,-79.88 88.92,-79.88 85.96,-79.88 83,-76.92 83,-73.96 83,-73.96 83,-68.04 83,-68.04 83,-65.08 85.96,-62.12 88.92,-62.12 88.92,-62.12 150.83,-62.12 150.83,-62.12 153.79,-62.12 156.75,-65.08 156.75,-68.04 156.75,-68.04 156.75,-73.96 156.75,-73.96 156.75,-76.92 153.79,-79.88 150.83,-79.88"/>
<text text-anchor="start" x="91" y="-67.33" font-family="Helvetica,sans-Serif" font-size="9.00">app.module.ts</text>
</a>
</g>
</g>
<!-- src/app.module.ts&#45;&gt;src/adapters/controllers/user.controller.ts -->
<g id="edge3" class="edge">
<title>src/app.module.ts&#45;&gt;src/adapters/controllers/user.controller.ts</title>
<path fill="none" stroke="#000000" stroke-width="2" stroke-opacity="0.200000" d="M157.2,-71C161.92,-71 166.81,-71 171.7,-71"/>
<polygon fill="#000000" fill-opacity="0.200000" stroke="#000000" stroke-width="2" stroke-opacity="0.200000" points="171.42,-73.1 177.42,-71 171.42,-68.9 171.42,-73.1"/>
</g>
<!-- src/domain/ports/user&#45;repository.port.ts&#45;&gt;src/domain/entities/user.entity.ts -->
<g id="edge4" class="edge">
<title>src/domain/ports/user&#45;repository.port.ts&#45;&gt;src/domain/entities/user.entity.ts</title>
<path fill="none" stroke="#000000" stroke-width="2" stroke-opacity="0.200000" d="M581.42,-67C586.22,-67 591.05,-67 595.75,-67"/>
<polygon fill="#000000" fill-opacity="0.200000" stroke="#000000" stroke-width="2" stroke-opacity="0.200000" points="595.56,-69.1 601.56,-67 595.56,-64.9 595.56,-69.1"/>
</g>
<!-- src/main.ts -->
<g id="node7" class="node">
<title>src/main.ts</title>
<g id="a_node7"><a xlink:href="src/main.ts" xlink:title="main.ts">
<path fill="#ddfeff" stroke="black" d="M64.08,-79.88C64.08,-79.88 21.92,-79.88 21.92,-79.88 18.96,-79.88 16,-76.92 16,-73.96 16,-73.96 16,-68.04 16,-68.04 16,-65.08 18.96,-62.12 21.92,-62.12 21.92,-62.12 64.08,-62.12 64.08,-62.12 67.04,-62.12 70,-65.08 70,-68.04 70,-68.04 70,-73.96 70,-73.96 70,-76.92 67.04,-79.88 64.08,-79.88"/>
<text text-anchor="start" x="28.38" y="-67.33" font-family="Helvetica,sans-Serif" font-size="9.00">main.ts</text>
</a>
</g>
</g>
<!-- src/main.ts&#45;&gt;src/app.module.ts -->
<g id="edge7" class="edge">
<title>src/main.ts&#45;&gt;src/app.module.ts</title>
<path fill="none" stroke="#000000" stroke-width="2" stroke-opacity="0.200000" d="M70.19,-71C71.45,-71 72.74,-71 74.03,-71"/>
<polygon fill="#000000" fill-opacity="0.200000" stroke="#000000" stroke-width="2" stroke-opacity="0.200000" points="73.67,-73.1 79.67,-71 73.67,-68.9 73.67,-73.1"/>
</g>
</g>
</svg>
