<?xml version="1.0" encoding="UTF-8" standalone="no"?>
<!DOCTYPE svg PUBLIC "-//W3C//DTD SVG 1.1//EN"
 "http://www.w3.org/Graphics/SVG/1.1/DTD/svg11.dtd">
<!-- Generated by graphviz version 12.2.1 (20241206.2353)
 -->
<!-- Title: dependency&#45;cruiser output Pages: 1 -->
<svg width="601pt" height="332pt"
 viewBox="0.00 0.00 601.38 332.00" xmlns="http://www.w3.org/2000/svg" xmlns:xlink="http://www.w3.org/1999/xlink">
<g id="graph0" class="graph" transform="scale(1 1) rotate(0) translate(4 328)">
<title>dependency&#45;cruiser output</title>
<polygon fill="white" stroke="none" points="-4,4 -4,-328 597.38,-328 597.38,4 -4,4"/>
<g id="clust1" class="cluster">
<title>cluster_src</title>
<path fill="#ffffff" stroke="black" stroke-width="2" d="M20,-8C20,-8 573.38,-8 573.38,-8 579.38,-8 585.38,-14 585.38,-20 585.38,-20 585.38,-304 585.38,-304 585.38,-310 579.38,-316 573.38,-316 573.38,-316 20,-316 20,-316 14,-316 8,-310 8,-304 8,-304 8,-20 8,-20 8,-14 14,-8 20,-8"/>
<text text-anchor="middle" x="296.69" y="-303.45" font-family="Helvetica,sans-Serif" font-weight="bold" font-size="9.00">src</text>
</g>
<g id="clust2" class="cluster">
<title>cluster_src/adapters</title>
<path fill="#ffffff" stroke="black" stroke-width="2" d="M201.12,-16C201.12,-16 292.62,-16 292.62,-16 298.62,-16 304.62,-22 304.62,-28 304.62,-28 304.62,-90 304.62,-90 304.62,-96 298.62,-102 292.62,-102 292.62,-102 201.12,-102 201.12,-102 195.12,-102 189.12,-96 189.12,-90 189.12,-90 189.12,-28 189.12,-28 189.12,-22 195.12,-16 201.12,-16"/>
<text text-anchor="middle" x="246.88" y="-89.45" font-family="Helvetica,sans-Serif" font-weight="bold" font-size="9.00">adapters</text>
</g>
<g id="clust3" class="cluster">
<title>cluster_src/adapters/controllers</title>
<path fill="#ffffff" stroke="black" stroke-width="2" d="M209.12,-24C209.12,-24 284.62,-24 284.62,-24 290.62,-24 296.62,-30 296.62,-36 296.62,-36 296.62,-64 296.62,-64 296.62,-70 290.62,-76 284.62,-76 284.62,-76 209.12,-76 209.12,-76 203.12,-76 197.12,-70 197.12,-64 197.12,-64 197.12,-36 197.12,-36 197.12,-30 203.12,-24 209.12,-24"/>
<text text-anchor="middle" x="246.88" y="-63.45" font-family="Helvetica,sans-Serif" font-weight="bold" font-size="9.00">controllers</text>
</g>
<g id="clust4" class="cluster">
<title>cluster_src/domain</title>
<path fill="#ffffff" stroke="black" stroke-width="2" d="M349,-204C349,-204 565.38,-204 565.38,-204 571.38,-204 577.38,-210 577.38,-216 577.38,-216 577.38,-278 577.38,-278 577.38,-284 571.38,-290 565.38,-290 565.38,-290 349,-290 349,-290 343,-290 337,-284 337,-278 337,-278 337,-216 337,-216 337,-210 343,-204 349,-204"/>
<text text-anchor="middle" x="457.19" y="-277.45" font-family="Helvetica,sans-Serif" font-weight="bold" font-size="9.00">domain</text>
</g>
<g id="clust5" class="cluster">
<title>cluster_src/domain/entities</title>
<path fill="#ffffff" stroke="black" stroke-width="2" d="M498.38,-212C498.38,-212 557.38,-212 557.38,-212 563.38,-212 569.38,-218 569.38,-224 569.38,-224 569.38,-252 569.38,-252 569.38,-258 563.38,-264 557.38,-264 557.38,-264 498.38,-264 498.38,-264 492.38,-264 486.38,-258 486.38,-252 486.38,-252 486.38,-224 486.38,-224 486.38,-218 492.38,-212 498.38,-212"/>
<text text-anchor="middle" x="527.88" y="-251.45" font-family="Helvetica,sans-Serif" font-weight="bold" font-size="9.00">entities</text>
</g>
<g id="clust6" class="cluster">
<title>cluster_src/domain/ports</title>
<path fill="#ffffff" stroke="black" stroke-width="2" d="M357,-212C357,-212 453.5,-212 453.5,-212 459.5,-212 465.5,-218 465.5,-224 465.5,-224 465.5,-252 465.5,-252 465.5,-258 459.5,-264 453.5,-264 453.5,-264 357,-264 357,-264 351,-264 345,-258 345,-252 345,-252 345,-224 345,-224 345,-218 351,-212 357,-212"/>
<text text-anchor="middle" x="405.25" y="-251.45" font-family="Helvetica,sans-Serif" font-weight="bold" font-size="9.00">ports</text>
</g>
<g id="clust7" class="cluster">
<title>cluster_src/infrastructure</title>
<path fill="#ffffff" stroke="black" stroke-width="2" d="M176.75,-204C176.75,-204 317,-204 317,-204 323,-204 329,-210 329,-216 329,-216 329,-278 329,-278 329,-284 323,-290 317,-290 317,-290 176.75,-290 176.75,-290 170.75,-290 164.75,-284 164.75,-278 164.75,-278 164.75,-216 164.75,-216 164.75,-210 170.75,-204 176.75,-204"/>
<text text-anchor="middle" x="246.88" y="-277.45" font-family="Helvetica,sans-Serif" font-weight="bold" font-size="9.00">infrastructure</text>
</g>
<g id="clust8" class="cluster">
<title>cluster_src/infrastructure/repositories</title>
<path fill="#ffffff" stroke="black" stroke-width="2" d="M184.75,-212C184.75,-212 309,-212 309,-212 315,-212 321,-218 321,-224 321,-224 321,-252 321,-252 321,-258 315,-264 309,-264 309,-264 184.75,-264 184.75,-264 178.75,-264 172.75,-258 172.75,-252 172.75,-252 172.75,-224 172.75,-224 172.75,-218 178.75,-212 184.75,-212"/>
<text text-anchor="middle" x="246.88" y="-251.45" font-family="Helvetica,sans-Serif" font-weight="bold" font-size="9.00">repositories</text>
</g>
<g id="clust9" class="cluster">
<title>cluster_src/use&#45;cases</title>
<path fill="#ffffff" stroke="black" stroke-width="2" d="M203.12,-110C203.12,-110 466.38,-110 466.38,-110 472.38,-110 478.38,-116 478.38,-122 478.38,-122 478.38,-184 478.38,-184 478.38,-190 472.38,-196 466.38,-196 466.38,-196 203.12,-196 203.12,-196 197.12,-196 191.12,-190 191.12,-184 191.12,-184 191.12,-122 191.12,-122 191.12,-116 197.12,-110 203.12,-110"/>
<text text-anchor="middle" x="334.75" y="-183.45" font-family="Helvetica,sans-Serif" font-weight="bold" font-size="9.00">use&#45;cases</text>
</g>
<g id="clust10" class="cluster">
<title>cluster_src/use&#45;cases/ports</title>
<path fill="#ffffff" stroke="black" stroke-width="2" d="M352.12,-118C352.12,-118 458.38,-118 458.38,-118 464.38,-118 470.38,-124 470.38,-130 470.38,-130 470.38,-158 470.38,-158 470.38,-164 464.38,-170 458.38,-170 458.38,-170 352.12,-170 352.12,-170 346.12,-170 340.12,-164 340.12,-158 340.12,-158 340.12,-130 340.12,-130 340.12,-124 346.12,-118 352.12,-118"/>
<text text-anchor="middle" x="405.25" y="-157.45" font-family="Helvetica,sans-Serif" font-weight="bold" font-size="9.00">ports</text>
</g>
<!-- src/adapters/controllers/user.controller.ts -->
<g id="node1" class="node">
<title>src/adapters/controllers/user.controller.ts</title>
<g id="a_node1"><a xlink:href="src/adapters/controllers/user.controller.ts" xlink:title="user.controller.ts">
<path fill="#ddfeff" stroke="black" d="M282.71,-49.88C282.71,-49.88 211.04,-49.88 211.04,-49.88 208.08,-49.88 205.12,-46.92 205.12,-43.96 205.12,-43.96 205.12,-38.04 205.12,-38.04 205.12,-35.08 208.08,-32.12 211.04,-32.12 211.04,-32.12 282.71,-32.12 282.71,-32.12 285.67,-32.12 288.62,-35.08 288.62,-38.04 288.62,-38.04 288.62,-43.96 288.62,-43.96 288.62,-46.92 285.67,-49.88 282.71,-49.88"/>
<text text-anchor="start" x="213.12" y="-37.33" font-family="Helvetica,sans-Serif" font-size="9.00">user.controller.ts</text>
</a>
</g>
</g>
<!-- src/use&#45;cases/ports/get&#45;user&#45;usecase.port.ts -->
<g id="node2" class="node">
<title>src/use&#45;cases/ports/get&#45;user&#45;usecase.port.ts</title>
<g id="a_node2"><a xlink:href="src/use-cases/ports/get-user-usecase.port.ts" xlink:title="get&#45;user&#45;usecase.port.ts">
<path fill="#ddfeff" stroke="black" d="M456.46,-143.88C456.46,-143.88 354.04,-143.88 354.04,-143.88 351.08,-143.88 348.12,-140.92 348.12,-137.96 348.12,-137.96 348.12,-132.04 348.12,-132.04 348.12,-129.08 351.08,-126.12 354.04,-126.12 354.04,-126.12 456.46,-126.12 456.46,-126.12 459.42,-126.12 462.38,-129.08 462.38,-132.04 462.38,-132.04 462.38,-137.96 462.38,-137.96 462.38,-140.92 459.42,-143.88 456.46,-143.88"/>
<text text-anchor="start" x="356.12" y="-131.32" font-family="Helvetica,sans-Serif" font-size="9.00">get&#45;user&#45;usecase.port.ts</text>
</a>
</g>
</g>
<!-- src/adapters/controllers/user.controller.ts&#45;&gt;src/use&#45;cases/ports/get&#45;user&#45;usecase.port.ts -->
<g id="edge1" class="edge">
<title>src/adapters/controllers/user.controller.ts&#45;&gt;src/use&#45;cases/ports/get&#45;user&#45;usecase.port.ts</title>
<path fill="none" stroke="#000000" stroke-width="2" stroke-opacity="0.200000" d="M263.44,-50.36C291.07,-66.97 348.82,-101.68 381.12,-121.09"/>
<polygon fill="#000000" fill-opacity="0.200000" stroke="#000000" stroke-width="2" stroke-opacity="0.200000" points="379.93,-122.83 386.15,-124.12 382.09,-119.23 379.93,-122.83"/>
</g>
<!-- src/domain/entities/user.entity.ts -->
<g id="node6" class="node">
<title>src/domain/entities/user.entity.ts</title>
<g id="a_node6"><a xlink:href="src/domain/entities/user.entity.ts" xlink:title="user.entity.ts">
<path fill="#ddfeff" stroke="black" d="M555.46,-237.88C555.46,-237.88 500.29,-237.88 500.29,-237.88 497.33,-237.88 494.38,-234.92 494.38,-231.96 494.38,-231.96 494.38,-226.04 494.38,-226.04 494.38,-223.08 497.33,-220.12 500.29,-220.12 500.29,-220.12 555.46,-220.12 555.46,-220.12 558.42,-220.12 561.38,-223.08 561.38,-226.04 561.38,-226.04 561.38,-231.96 561.38,-231.96 561.38,-234.92 558.42,-237.88 555.46,-237.88"/>
<text text-anchor="start" x="502.38" y="-225.32" font-family="Helvetica,sans-Serif" font-size="9.00">user.entity.ts</text>
</a>
</g>
</g>
<!-- src/use&#45;cases/ports/get&#45;user&#45;usecase.port.ts&#45;&gt;src/domain/entities/user.entity.ts -->
<g id="edge12" class="edge">
<title>src/use&#45;cases/ports/get&#45;user&#45;usecase.port.ts&#45;&gt;src/domain/entities/user.entity.ts</title>
<path fill="none" stroke="#000000" stroke-width="2" stroke-opacity="0.200000" d="M462.87,-140.3C468.38,-142.23 473.67,-144.74 478.38,-148 500.62,-163.38 514.34,-192.58 521.28,-211.4"/>
<polygon fill="#000000" fill-opacity="0.200000" stroke="#000000" stroke-width="2" stroke-opacity="0.200000" points="519.21,-211.85 523.16,-216.84 523.18,-210.48 519.21,-211.85"/>
</g>
<!-- src/app.module.ts -->
<g id="node3" class="node">
<title>src/app.module.ts</title>
<g id="a_node3"><a xlink:href="src/app.module.ts" xlink:title="app.module.ts">
<path fill="#ddfeff" stroke="black" d="M150.83,-169.88C150.83,-169.88 88.92,-169.88 88.92,-169.88 85.96,-169.88 83,-166.92 83,-163.96 83,-163.96 83,-158.04 83,-158.04 83,-155.08 85.96,-152.12 88.92,-152.12 88.92,-152.12 150.83,-152.12 150.83,-152.12 153.79,-152.12 156.75,-155.08 156.75,-158.04 156.75,-158.04 156.75,-163.96 156.75,-163.96 156.75,-166.92 153.79,-169.88 150.83,-169.88"/>
<text text-anchor="start" x="91" y="-157.32" font-family="Helvetica,sans-Serif" font-size="9.00">app.module.ts</text>
</a>
</g>
</g>
<!-- src/app.module.ts&#45;&gt;src/adapters/controllers/user.controller.ts -->
<g id="edge2" class="edge">
<title>src/app.module.ts&#45;&gt;src/adapters/controllers/user.controller.ts</title>
<path fill="none" stroke="#000000" stroke-width="2" stroke-opacity="0.200000" d="M127.49,-151.73C135.65,-140.57 150.23,-121.53 164.75,-107 184,-87.73 208.55,-68.38 225.58,-55.66"/>
<polygon fill="#000000" fill-opacity="0.200000" stroke="#000000" stroke-width="2" stroke-opacity="0.200000" points="226.81,-57.36 230.39,-52.11 224.32,-53.98 226.81,-57.36"/>
</g>
<!-- src/infrastructure/repositories/in&#45;memory&#45;user.repository.ts -->
<g id="node4" class="node">
<title>src/infrastructure/repositories/in&#45;memory&#45;user.repository.ts</title>
<g id="a_node4"><a xlink:href="src/infrastructure/repositories/in-memory-user.repository.ts" xlink:title="in&#45;memory&#45;user.repository.ts">
<path fill="#ddfeff" stroke="black" d="M307.08,-237.88C307.08,-237.88 186.67,-237.88 186.67,-237.88 183.71,-237.88 180.75,-234.92 180.75,-231.96 180.75,-231.96 180.75,-226.04 180.75,-226.04 180.75,-223.08 183.71,-220.12 186.67,-220.12 186.67,-220.12 307.08,-220.12 307.08,-220.12 310.04,-220.12 313,-223.08 313,-226.04 313,-226.04 313,-231.96 313,-231.96 313,-234.92 310.04,-237.88 307.08,-237.88"/>
<text text-anchor="start" x="188.75" y="-225.32" font-family="Helvetica,sans-Serif" font-size="9.00">in&#45;memory&#45;user.repository.ts</text>
</a>
</g>
</g>
<!-- src/app.module.ts&#45;&gt;src/infrastructure/repositories/in&#45;memory&#45;user.repository.ts -->
<g id="edge3" class="edge">
<title>src/app.module.ts&#45;&gt;src/infrastructure/repositories/in&#45;memory&#45;user.repository.ts</title>
<path fill="none" stroke="#000000" stroke-width="2" stroke-opacity="0.200000" d="M129.53,-170.2C137.89,-178.64 151.22,-191 164.75,-199 176.94,-206.21 191.17,-212.18 204.27,-216.84"/>
<polygon fill="#000000" fill-opacity="0.200000" stroke="#000000" stroke-width="2" stroke-opacity="0.200000" points="203.46,-218.79 209.82,-218.74 204.82,-214.81 203.46,-218.79"/>
</g>
<!-- src/use&#45;cases/get&#45;user.usecase.ts -->
<g id="node5" class="node">
<title>src/use&#45;cases/get&#45;user.usecase.ts</title>
<g id="a_node5"><a xlink:href="src/use-cases/get-user.usecase.ts" xlink:title="get&#45;user.usecase.ts">
<path fill="#ddfeff" stroke="black" d="M288.71,-169.88C288.71,-169.88 205.04,-169.88 205.04,-169.88 202.08,-169.88 199.12,-166.92 199.12,-163.96 199.12,-163.96 199.12,-158.04 199.12,-158.04 199.12,-155.08 202.08,-152.12 205.04,-152.12 205.04,-152.12 288.71,-152.12 288.71,-152.12 291.67,-152.12 294.62,-155.08 294.62,-158.04 294.62,-158.04 294.62,-163.96 294.62,-163.96 294.62,-166.92 291.67,-169.88 288.71,-169.88"/>
<text text-anchor="start" x="207.12" y="-157.32" font-family="Helvetica,sans-Serif" font-size="9.00">get&#45;user.usecase.ts</text>
</a>
</g>
</g>
<!-- src/app.module.ts&#45;&gt;src/use&#45;cases/get&#45;user.usecase.ts -->
<g id="edge4" class="edge">
<title>src/app.module.ts&#45;&gt;src/use&#45;cases/get&#45;user.usecase.ts</title>
<path fill="none" stroke="#000000" stroke-width="2" stroke-opacity="0.200000" d="M157.03,-161C167.38,-161 178.92,-161 190.16,-161"/>
<polygon fill="#000000" fill-opacity="0.200000" stroke="#000000" stroke-width="2" stroke-opacity="0.200000" points="190.06,-163.1 196.06,-161 190.06,-158.9 190.06,-163.1"/>
</g>
<!-- src/infrastructure/repositories/in&#45;memory&#45;user.repository.ts&#45;&gt;src/domain/entities/user.entity.ts -->
<g id="edge6" class="edge">
<title>src/infrastructure/repositories/in&#45;memory&#45;user.repository.ts&#45;&gt;src/domain/entities/user.entity.ts</title>
<path fill="none" stroke="#000000" stroke-width="2" stroke-opacity="0.200000" d="M263.98,-238.23C281.35,-247.61 310.14,-261.51 337,-267 398.56,-279.58 418.98,-287.5 478.38,-267 491.3,-262.54 503.41,-253.06 512.3,-244.68"/>
<polygon fill="#000000" fill-opacity="0.200000" stroke="#000000" stroke-width="2" stroke-opacity="0.200000" points="513.77,-246.18 516.54,-240.46 510.81,-243.2 513.77,-246.18"/>
</g>
<!-- src/domain/ports/user&#45;repository.port.ts -->
<g id="node7" class="node">
<title>src/domain/ports/user&#45;repository.port.ts</title>
<g id="a_node7"><a xlink:href="src/domain/ports/user-repository.port.ts" xlink:title="user&#45;repository.port.ts">
<path fill="#ddfeff" stroke="black" d="M451.58,-237.88C451.58,-237.88 358.92,-237.88 358.92,-237.88 355.96,-237.88 353,-234.92 353,-231.96 353,-231.96 353,-226.04 353,-226.04 353,-223.08 355.96,-220.12 358.92,-220.12 358.92,-220.12 451.58,-220.12 451.58,-220.12 454.54,-220.12 457.5,-223.08 457.5,-226.04 457.5,-226.04 457.5,-231.96 457.5,-231.96 457.5,-234.92 454.54,-237.88 451.58,-237.88"/>
<text text-anchor="start" x="361" y="-225.32" font-family="Helvetica,sans-Serif" font-size="9.00">user&#45;repository.port.ts</text>
</a>
</g>
</g>
<!-- src/infrastructure/repositories/in&#45;memory&#45;user.repository.ts&#45;&gt;src/domain/ports/user&#45;repository.port.ts -->
<g id="edge7" class="edge">
<title>src/infrastructure/repositories/in&#45;memory&#45;user.repository.ts&#45;&gt;src/domain/ports/user&#45;repository.port.ts</title>
<path fill="none" stroke="#000000" stroke-width="2" stroke-opacity="0.200000" d="M313.29,-229C323.51,-229 334.04,-229 344.14,-229"/>
<polygon fill="#000000" fill-opacity="0.200000" stroke="#000000" stroke-width="2" stroke-opacity="0.200000" points="343.86,-231.1 349.86,-229 343.86,-226.9 343.86,-231.1"/>
</g>
<!-- src/use&#45;cases/get&#45;user.usecase.ts&#45;&gt;src/use&#45;cases/ports/get&#45;user&#45;usecase.port.ts -->
<g id="edge11" class="edge">
<title>src/use&#45;cases/get&#45;user.usecase.ts&#45;&gt;src/use&#45;cases/ports/get&#45;user&#45;usecase.port.ts</title>
<path fill="none" stroke="#000000" stroke-width="2" stroke-opacity="0.200000" d="M294.79,-153.2C308.78,-150.87 324.37,-148.28 339.29,-145.8"/>
<polygon fill="#000000" fill-opacity="0.200000" stroke="#000000" stroke-width="2" stroke-opacity="0.200000" points="339.42,-147.91 345,-144.85 338.74,-143.76 339.42,-147.91"/>
</g>
<!-- src/use&#45;cases/get&#45;user.usecase.ts&#45;&gt;src/domain/entities/user.entity.ts -->
<g id="edge9" class="edge">
<title>src/use&#45;cases/get&#45;user.usecase.ts&#45;&gt;src/domain/entities/user.entity.ts</title>
<path fill="none" stroke="#000000" stroke-width="2" stroke-opacity="0.200000" d="M294.87,-168.15C341.91,-175.93 416.06,-189.84 478.38,-209 485.11,-211.07 492.2,-213.71 498.82,-216.4"/>
<polygon fill="#000000" fill-opacity="0.200000" stroke="#000000" stroke-width="2" stroke-opacity="0.200000" points="497.75,-218.23 504.1,-218.61 499.37,-214.35 497.75,-218.23"/>
</g>
<!-- src/use&#45;cases/get&#45;user.usecase.ts&#45;&gt;src/domain/ports/user&#45;repository.port.ts -->
<g id="edge10" class="edge">
<title>src/use&#45;cases/get&#45;user.usecase.ts&#45;&gt;src/domain/ports/user&#45;repository.port.ts</title>
<path fill="none" stroke="#000000" stroke-width="2" stroke-opacity="0.200000" d="M269.29,-170.31C296.59,-182.18 343.91,-202.76 374.64,-216.13"/>
<polygon fill="#000000" fill-opacity="0.200000" stroke="#000000" stroke-width="2" stroke-opacity="0.200000" points="373.73,-218.02 380.07,-218.48 375.4,-214.17 373.73,-218.02"/>
</g>
<!-- src/domain/ports/user&#45;repository.port.ts&#45;&gt;src/domain/entities/user.entity.ts -->
<g id="edge5" class="edge">
<title>src/domain/ports/user&#45;repository.port.ts&#45;&gt;src/domain/entities/user.entity.ts</title>
<path fill="none" stroke="#000000" stroke-width="2" stroke-opacity="0.200000" d="M457.76,-229C466.88,-229 476.28,-229 485.1,-229"/>
<polygon fill="#000000" fill-opacity="0.200000" stroke="#000000" stroke-width="2" stroke-opacity="0.200000" points="485.01,-231.1 491.01,-229 485.01,-226.9 485.01,-231.1"/>
</g>
<!-- src/main.ts -->
<g id="node8" class="node">
<title>src/main.ts</title>
<g id="a_node8"><a xlink:href="src/main.ts" xlink:title="main.ts">
<path fill="#ddfeff" stroke="black" d="M64.08,-169.88C64.08,-169.88 21.92,-169.88 21.92,-169.88 18.96,-169.88 16,-166.92 16,-163.96 16,-163.96 16,-158.04 16,-158.04 16,-155.08 18.96,-152.12 21.92,-152.12 21.92,-152.12 64.08,-152.12 64.08,-152.12 67.04,-152.12 70,-155.08 70,-158.04 70,-158.04 70,-163.96 70,-163.96 70,-166.92 67.04,-169.88 64.08,-169.88"/>
<text text-anchor="start" x="28.38" y="-157.32" font-family="Helvetica,sans-Serif" font-size="9.00">main.ts</text>
</a>
</g>
</g>
<!-- src/main.ts&#45;&gt;src/app.module.ts -->
<g id="edge8" class="edge">
<title>src/main.ts&#45;&gt;src/app.module.ts</title>
<path fill="none" stroke="#000000" stroke-width="2" stroke-opacity="0.200000" d="M70.19,-161C71.45,-161 72.74,-161 74.03,-161"/>
<polygon fill="#000000" fill-opacity="0.200000" stroke="#000000" stroke-width="2" stroke-opacity="0.200000" points="73.67,-163.1 79.67,-161 73.67,-158.9 73.67,-163.1"/>
</g>
</g>
</svg>
